<svg width="14" height="14" viewBox="0 0 14 14" fill="none" xmlns="http://www.w3.org/2000/svg">
<path d="M12.5263 13.9997H1.47368C0.660947 13.9997 0 13.3179 0 12.4779V10.9322C0 10.5252 0.329896 10.1953 0.736842 10.1953C1.14379 10.1953 1.47368 10.5252 1.47368 10.9322V11.4779C1.47368 12.0302 1.9214 12.4779 2.47368 12.4779H11.5263C12.0786 12.4779 12.5263 12.0302 12.5263 11.4779V10.9322C12.5263 10.5252 12.8562 10.1953 13.2632 10.1953C13.6701 10.1953 14 10.5252 14 10.9322V12.4779C14 13.3172 13.3391 13.9997 12.5263 13.9997Z" fill="white"/>
<path d="M7.77431 8.35271V0.777778C7.77431 0.348223 7.42608 0 6.99653 0C6.56697 0 6.21875 0.348222 6.21875 0.777777V8.35271C6.21875 8.78226 6.56697 9.13048 6.99653 9.13048C7.42608 9.13048 7.77431 8.78226 7.77431 8.35271Z" fill="white"/>
<path d="M7.66835 10.351C7.2877 10.6946 6.70882 10.6946 6.32818 10.351L3.7531 8.02634C3.40873 7.71547 3.40873 7.175 3.7531 6.86412C4.05106 6.59514 4.50419 6.5951 4.80219 6.86404L6.32829 8.24128C6.7089 8.58477 7.28763 8.58477 7.66824 8.24128L9.19433 6.86404C9.49234 6.5951 9.94547 6.59514 10.2434 6.86412C10.5878 7.175 10.5878 7.71547 10.2434 8.02635L7.66835 10.351Z" fill="white"/>
</svg>
