<svg width="21" height="21" viewBox="0 0 21 21" fill="none" xmlns="http://www.w3.org/2000/svg">
<path d="M10.5 3.5C10.5 2.08579 10.5 1.37868 10.9393 0.93934C11.3787 0.5 12.0858 0.5 13.5 0.5H14.5C15.9142 0.5 16.6213 0.5 17.0607 0.93934C17.5 1.37868 17.5 2.08579 17.5 3.5C17.5 4.91421 17.5 5.62132 17.0607 6.06066C16.6213 6.5 15.9142 6.5 14.5 6.5H13.5C12.0858 6.5 11.3787 6.5 10.9393 6.06066C10.5 5.62132 10.5 4.91421 10.5 3.5Z" stroke="#222222"/>
<path d="M17.5 2.25L19.1154 1.57692C19.7416 1.316 20.0547 1.18554 20.2774 1.33397C20.5 1.48241 20.5 1.82161 20.5 2.5V4.5C20.5 5.17839 20.5 5.51759 20.2774 5.66603C20.0547 5.81446 19.7416 5.684 19.1154 5.42308L17.5 4.75V2.25Z" stroke="#222222"/>
<path opacity="0.5" d="M14.5 20.5H6.5M10.5 15.5V20.5" stroke="#222222" stroke-linecap="round"/>
<path opacity="0.5" d="M20.5 11.5H0.5" stroke="#222222" stroke-linecap="round"/>
<path d="M20.5 8.5V9.5C20.5 12.3284 20.5 13.7426 19.6213 14.6213C18.7426 15.5 17.3284 15.5 14.5 15.5H6.5C3.67157 15.5 2.25736 15.5 1.37868 14.6213C0.5 13.7426 0.5 12.3284 0.5 9.5V8C0.5 4.71252 0.5 3.06878 1.40796 1.96243C1.57418 1.75989 1.75989 1.57418 1.96243 1.40796C3.06878 0.5 4.71252 0.5 8 0.5" stroke="#222222" stroke-linecap="round"/>
</svg>
