<svg width="40" height="40" viewBox="0 0 40 40" fill="none" xmlns="http://www.w3.org/2000/svg">
<path d="M40 20C40 31.048 31.048 40 20 40C8.95195 40 0 31.0416 0 20C0 8.9584 8.95195 0 20 0C31.048 0 40 8.95195 40 20Z" fill="white" fill-opacity="0.1"/>
<path d="M30.5402 15.3423C30.2872 14.4203 29.5418 13.6942 28.5952 13.4478C26.8796 13 20 13 20 13C20 13 13.1204 13 11.4048 13.4478C10.4582 13.6942 9.71276 14.4203 9.45975 15.3423C9 17.0134 9 20.5 9 20.5C9 20.5 9 23.9867 9.45975 25.6577C9.71276 26.5797 10.4582 27.3058 11.4048 27.5523C13.1204 28 20 28 20 28C20 28 26.8796 28 28.5952 27.5523C29.5418 27.3058 30.2872 26.5797 30.5402 25.6577C31 23.9867 31 20.5 31 20.5C31 20.5 31 17.0135 30.5402 15.3423Z" fill="white" fill-opacity="0.7"/>
<path d="M17.8008 23.7142L23.5163 20.5001L17.8008 17.2856V23.7142Z" fill="#444444"/>
</svg>
