<svg width="40" height="40" viewBox="0 0 40 40" fill="none" xmlns="http://www.w3.org/2000/svg">
<path d="M40 20C40 31.048 31.048 40 20 40C8.95195 40 0 31.0416 0 20C0 8.9584 8.95195 0 20 0C31.048 0 40 8.95195 40 20Z" fill="white" fill-opacity="0.1"/>
<path d="M30 28.0004C30 29.1048 29.0974 30 27.9837 30H12.0165C10.9026 30 10 29.1048 10 28.0004V11.9994C10 10.8951 10.9026 10 12.0165 10H27.9837C29.0974 10 30 10.8951 30 11.9994V28.0004Z" fill="white" fill-opacity="0.7"/>
<path d="M16.5062 14.8902C16.5062 15.6248 15.9574 16.2198 15.0547 16.2198C14.2051 16.2198 13.6562 15.6248 13.6562 14.8902C13.6562 14.1379 14.2228 13.5605 15.0899 13.5605C15.9574 13.5605 16.4886 14.1379 16.5062 14.8902ZM13.7271 17.2695H16.4178V25.8247H13.7271V17.2695Z" fill="#444444"/>
<path d="M18.0276 19.9988C18.0276 18.9317 17.9922 18.0396 17.957 17.2696H20.2937L20.4177 18.4594H20.4707C20.8247 17.8994 21.6924 17.0771 23.1439 17.0771C24.9141 17.0771 26.2416 18.2495 26.2416 20.7687V25.8248H23.551V21.0836C23.551 19.9814 23.1614 19.2292 22.1878 19.2292C21.4444 19.2292 21.0019 19.7365 20.8073 20.2263C20.7364 20.4011 20.7186 20.646 20.7186 20.8911V25.8247H18.0279V19.9988H18.0276Z" fill="#444444"/>
</svg>
