<svg width="20" height="20" viewBox="0 0 20 20" fill="none" xmlns="http://www.w3.org/2000/svg">
<mask id="mask0_62102_16383" style="mask-type:alpha" maskUnits="userSpaceOnUse" x="2" y="0" width="16" height="20">
<path d="M10.084 0.255859C14.314 0.300191 17.75 3.68616 17.75 7.88574C17.75 9.28227 17.5081 10.0719 17.1475 11.1846L17.1484 11.1855C16.8533 12.1004 16.2681 13.0808 15.5996 14.0088C14.9244 14.9462 14.131 15.8752 13.3799 16.6924C12.6277 17.5107 11.9096 18.2253 11.3799 18.7354C11.1148 18.9906 10.896 19.1956 10.7432 19.3369C10.7056 19.3717 10.671 19.4017 10.6416 19.4287C10.6359 19.4367 10.6321 19.4462 10.626 19.4541C10.4694 19.6571 10.2634 19.7177 10.1348 19.7363C10.1328 19.7367 10.1309 19.737 10.1289 19.7373C10.11 19.7399 10.0931 19.7442 10.0781 19.7451C10.0717 19.7455 10.0649 19.7442 10.0586 19.7441C10.0191 19.7472 9.97991 19.7473 9.94043 19.7441C9.93461 19.7442 9.92877 19.7455 9.92285 19.7451C9.90774 19.7442 9.89025 19.7399 9.87109 19.7373C9.86851 19.7369 9.86586 19.7368 9.86328 19.7363C9.73457 19.7173 9.53081 19.6558 9.375 19.4541C9.36914 19.4465 9.36385 19.4383 9.3584 19.4307C9.32876 19.4035 9.29489 19.3721 9.25684 19.3369C9.10379 19.1954 8.88458 18.9901 8.61914 18.7344C8.08881 18.2235 7.37021 17.5073 6.61719 16.6875C5.86534 15.869 5.07133 14.9386 4.39551 13.999C3.72644 13.0688 3.14071 12.0866 2.8457 11.1689V11.168C2.49144 10.06 2.25003 9.27771 2.25 7.88281C2.25 3.65546 5.73152 0.25 10 0.25C10.0284 0.25 10.0564 0.252777 10.084 0.255859ZM9.95996 1.75C6.51451 1.77115 3.75 4.52069 3.75 7.88281C3.75002 9.03965 3.93315 9.6426 4.27441 10.71L4.37012 10.9775C4.62061 11.6156 5.05709 12.3498 5.61328 13.123C6.2422 13.9974 6.9934 14.88 7.72168 15.6729C8.44876 16.4644 9.1452 17.1583 9.66016 17.6543C9.78422 17.7738 9.89943 17.8797 10 17.9746C10.1003 17.88 10.2152 17.7744 10.3389 17.6553C10.8533 17.1599 11.549 16.467 12.2754 15.6768C13.0031 14.8851 13.7543 14.0043 14.3828 13.1318C15.0181 12.2499 15.4968 11.4196 15.7207 10.7256V10.7246C16.0667 9.65713 16.25 9.04559 16.25 7.88574C16.25 4.51061 13.464 1.75293 10 1.75293C9.98654 1.75293 9.97325 1.7507 9.95996 1.75ZM10 3.39941C12.3227 3.39941 14.251 5.22042 14.251 7.52539C14.251 9.83035 12.3227 11.6514 10 11.6514C7.68053 11.6514 5.74903 9.83074 5.74902 7.52539C5.74902 5.22043 7.67729 3.39941 10 3.39941ZM10 4.89941C8.45362 4.89941 7.24902 6.10001 7.24902 7.52539C7.24903 8.95037 8.45605 10.1514 10 10.1514C11.5464 10.1514 12.751 8.95076 12.751 7.52539C12.751 6.10001 11.5464 4.89941 10 4.89941Z" fill="#333333"/>
</mask>
<g mask="url(#mask0_62102_16383)">
<rect width="20" height="20" fill="#333333"/>
<circle cx="10" cy="7.5" r="5" fill="#294DC7"/>
</g>
</svg>
