<svg width="20" height="20" viewBox="0 0 20 20" fill="none" xmlns="http://www.w3.org/2000/svg">
<path d="M5.11816 1.25C5.37255 1.25 5.69239 1.30833 5.95508 1.50586L6.06348 1.59863L6.08594 1.62012L6.10547 1.64355L8.56738 4.48438H8.56641C9.11743 5.07475 9.1057 5.99982 8.53223 6.5752H8.53125L7.65234 7.45312C7.47589 7.64398 7.37587 7.79692 7.31934 7.91992C7.17934 8.32008 6.94951 9.37321 8.0166 10.5234L9.49805 12.0049C10.6409 13.0621 11.6915 12.8252 12.1064 12.6777C12.208 12.6297 12.3543 12.5336 12.5479 12.3545L13.4268 11.4766C13.9938 10.9095 14.9216 10.8851 15.5322 11.4551H15.5332L18.3477 13.8945L18.375 13.918L18.4004 13.9453C18.7292 14.2922 18.7821 14.761 18.7344 15.1279L18.7354 15.1289C18.6838 15.515 18.5057 15.9279 18.2158 16.2178L18.2148 16.2168L17.0527 17.3838L17.0293 17.4072L17.0029 17.4287C14.6919 19.3632 12.0823 18.8412 10.2051 17.959C8.32792 17.0768 6.98346 15.7559 6.93457 15.707L4.30078 13.0713C4.25174 13.0222 2.93134 11.6789 2.04688 9.80469C1.16273 7.93108 0.634081 5.32486 2.56152 3.01953L2.58301 2.99414L2.60645 2.9707L3.79004 1.78613C4.07829 1.4979 4.49 1.3174 4.88086 1.2666V1.26562C4.9541 1.25613 5.0346 1.25001 5.11816 1.25Z" stroke="#333333" stroke-width="1.5"/>
</svg>
