<svg width="20" height="20" viewBox="0 0 20 20" fill="none" xmlns="http://www.w3.org/2000/svg">
<g clip-path="url(#clip0_61762_14877)">
<path d="M17.249 5.82252H14.499C13.1885 5.82252 12.125 4.7432 12.125 3.41828V0.633244C12.125 0.42369 12.2941 0.252441 12.501 0.252441C12.7079 0.252441 12.877 0.421436 12.877 0.633244V3.41828C12.877 4.32635 13.6068 5.06317 14.5012 5.06317H17.2513C17.4582 5.06317 17.6273 5.23216 17.6273 5.44397C17.6273 5.65578 17.4604 5.82477 17.2513 5.82477L17.249 5.82252Z" fill="black"/>
<path d="M17.5016 9.36683C17.2947 9.36683 17.1256 9.19558 17.1256 8.98603V5.59937L12.3464 0.759351H4.50124C3.60459 0.759351 2.87703 1.49842 2.87703 2.40424V7.97431C2.87703 8.18387 2.71016 8.35511 2.50102 8.35511C2.29187 8.35511 2.125 8.18387 2.125 7.97431V2.40424C2.12722 1.07931 3.19297 0 4.50124 0H12.5021C12.6023 0 12.6979 0.0405588 12.7669 0.11041L17.7663 5.1735C17.8375 5.24561 17.8754 5.34024 17.8754 5.44164V8.98603C17.8754 9.19558 17.7085 9.36683 17.4993 9.36683H17.5016Z" fill="black"/>
<path d="M15.9997 19.9998H4.00063C2.96603 19.9998 2.125 19.1481 2.125 18.1003V16.0746C2.125 15.8651 2.2941 15.6938 2.50102 15.6938C2.70793 15.6938 2.87703 15.8628 2.87703 16.0746V18.1003C2.87703 18.729 3.38209 19.2405 4.00285 19.2405H16.002C16.6227 19.2405 17.1278 18.729 17.1278 18.1003V16.0746C17.1278 15.8651 17.2969 15.6938 17.5038 15.6938C17.7107 15.6938 17.8798 15.8628 17.8798 16.0746V18.1003C17.8798 19.1481 17.0388 19.9998 16.0042 19.9998H15.9997Z" fill="black"/>
<path d="M19.6252 15.8425C19.4383 15.7456 19.2247 15.6893 19 15.6893H1.00021C0.77549 15.6893 0.561895 15.7434 0.375 15.8425V10.5C0.375 9.87135 0.880062 9.35986 1.50082 9.35986H18.4994C19.1201 9.35986 19.6252 9.87135 19.6252 10.5V15.8425Z" fill="#FF0B17"/>
<path d="M18.5004 9.7408C18.9142 9.7408 19.2502 10.081 19.2502 10.5001V15.3289C19.1679 15.3176 19.0855 15.3109 19.001 15.3109H0.998999C0.914451 15.3109 0.829903 15.3176 0.749805 15.3289V10.5001C0.749805 10.081 1.08577 9.7408 1.49961 9.7408H18.4982M18.4982 8.98145H1.49961C0.671932 8.98145 0 9.66193 0 10.5001V17.0819C0 16.5231 0.447213 16.0702 0.998999 16.0702H18.9988C19.5506 16.0702 19.9978 16.5231 19.9978 17.0819V10.5001C19.9978 9.66193 19.3258 8.98145 18.4982 8.98145Z" fill="#FF0B17"/>
<path d="M0.998999 18.0937C0.447213 18.0937 0 17.6408 0 17.082C0 16.5232 0.447213 16.0703 0.998999 16.0703H2.00022V18.096H0.998999V18.0937Z" fill="#C91B2C"/>
<path d="M18.999 18.0937C19.5508 18.0937 19.998 17.6408 19.998 17.082C19.998 16.5232 19.5508 16.0703 18.999 16.0703H18V18.096H18.999V18.0937Z" fill="#C91B2C"/>
<path d="M5.77344 11.2935C5.77344 11.1425 5.89136 10.978 6.08048 10.978H7.11953C7.70469 10.978 8.232 11.3746 8.232 12.1362C8.232 12.8573 7.70469 13.2583 7.11953 13.2583H6.3675V13.86C6.3675 14.0605 6.24068 14.1754 6.08048 14.1754C5.93141 14.1754 5.77344 14.0627 5.77344 13.86V11.2935ZM6.3675 11.5526V12.6883H7.11953C7.42212 12.6883 7.66019 12.4201 7.66019 12.1362C7.66019 11.8162 7.41989 11.5526 7.11953 11.5526H6.3675Z" fill="white"/>
<path d="M9.02243 14.1733C8.87336 14.1733 8.71094 14.0922 8.71094 13.8917V11.3027C8.71094 11.1382 8.87336 11.021 9.02243 11.021H10.0526C12.1106 11.021 12.0661 14.1756 10.0926 14.1756H9.02243V14.1733ZM9.305 11.5753V13.6168H10.0526C11.2674 13.6168 11.323 11.5753 10.0526 11.5753H9.305Z" fill="white"/>
<path d="M12.6934 11.6114V12.3369H13.8415C14.0039 12.3369 14.1663 12.5014 14.1663 12.6614C14.1663 12.8123 14.0039 12.934 13.8415 12.934H12.6934V13.8917C12.6934 14.0516 12.5821 14.1733 12.422 14.1733C12.2239 14.1733 12.1016 14.0494 12.1016 13.8917V11.3027C12.1016 11.1382 12.2217 11.021 12.422 11.021H14.0017C14.1997 11.021 14.3176 11.1382 14.3176 11.3027C14.3176 11.4491 14.1997 11.6136 14.0017 11.6136H12.6912L12.6934 11.6114Z" fill="white"/>
</g>
<defs>
<clipPath id="clip0_61762_14877">
<rect width="20" height="20" fill="white"/>
</clipPath>
</defs>
</svg>
